# xmcd CD database file
#
# Track frame offsets:
#	150
#	16885
#	33317
#	54037
#	78068
#	86670
#	103907
#	127253
#	144522
#	161702
#	177142
#	196737
#	215288
#	237606
#	252889
#
# Disc length: 3556 seconds
#
# Revision: 2
# Processed by: cddbd v1.4b41PL1 Copyright (c) Steve Scherf et al.
# Submitted via: Feurio! 1.50.2ß - http://www.feurio.com
#
DISCID=c20de20f
DTITLE=Stan Webb - Jersey Lightning
DYEAR=1900
DGENRE=
TTITLE0=Standing on the border
TTITLE1=It's alright
TTITLE2=Keep your love
TTITLE3=Can't keep you satisfied
TTITLE4=Jersey lightning
TTITLE5=Evil
TTITLE6=Ain't no magic
TTITLE7=Crying smiling
TTITLE8=The end
TTITLE9=Use what you've got
TTITLE10=It wasn't me
TTITLE11=Little bird
TTITLE12=Emily
TTITLE13=Let me love you baby
TTITLE14=Shake your money maker
EXTD=
EXTT0=
EXTT1=
EXTT2=
EXTT3=
EXTT4=
EXTT5=
EXTT6=
EXTT7=
EXTT8=
EXTT9=
EXTT10=
EXTT11=
EXTT12=
EXTT13=
EXTT14=
PLAYORDER=
